<svg xmlns="http://www.w3.org/2000/svg" width="64" height="64" viewBox="0 0 32 32" fill="none">
  <rect x="2" y="2" width="28" height="28" rx="8" fill="#2563EB" fill-opacity="0.1"/>
  <rect x="10" y="10" width="12" height="12" rx="2" stroke="#2563EB" stroke-width="2.5" fill="white"/>
  <line x1="11" y1="7" x2="11" y2="10" stroke="#2563EB" stroke-width="2" stroke-linecap="round"/>
  <line x1="16" y1="7" x2="16" y2="10" stroke="#2563EB" stroke-width="2" stroke-linecap="round"/>
  <line x1="21" y1="7" x2="21" y2="10" stroke="#2563EB" stroke-width="2" stroke-linecap="round"/>
  <line x1="11" y1="22" x2="11" y2="25" stroke="#2563EB" stroke-width="2" stroke-linecap="round"/>
  <line x1="16" y1="22" x2="16" y2="25" stroke="#2563EB" stroke-width="2" stroke-linecap="round"/>
  <line x1="21" y1="22" x2="21" y2="25" stroke="#2563EB" stroke-width="2" stroke-linecap="round"/>
  <line x1="7" y1="11" x2="10" y2="11" stroke="#2563EB" stroke-width="2" stroke-linecap="round"/>
  <line x1="7" y1="16" x2="10" y2="16" stroke="#2563EB" stroke-width="2" stroke-linecap="round"/>
  <line x1="7" y1="21" x2="10" y2="21" stroke="#2563EB" stroke-width="2" stroke-linecap="round"/>
  <line x1="22" y1="11" x2="25" y2="11" stroke="#2563EB" stroke-width="2" stroke-linecap="round"/>
  <line x1="22" y1="16" x2="25" y2="16" stroke="#2563EB" stroke-width="2" stroke-linecap="round"/>
  <line x1="22" y1="21" x2="25" y2="21" stroke="#2563EB" stroke-width="2" stroke-linecap="round"/>
</svg>
