<svg xmlns="http://www.w3.org/2000/svg" width="720" height="390" viewBox="0 0 720 390" role="img" aria-labelledby="title desc"><title id="title">Aplikacja webowa i aktywne usługi</title><desc id="desc">Panel aplikacji połączony z API, automatyzacją i serwerem.</desc><defs><linearGradient id="bg" x2="1" y2="1"><stop stop-color="#0f172a"/><stop offset="1" stop-color="#1e3a8a"/></linearGradient></defs><rect x="10" y="10" width="700" height="370" rx="34" fill="url(#bg)"/><rect x="42" y="42" width="636" height="205" rx="22" fill="#f8fafc"/><path d="M42 64a22 22 0 0 1 22-22h592a22 22 0 0 1 22 22v32H42z" fill="#e2e8f0"/><circle cx="72" cy="69" r="6" fill="#fb7185"/><circle cx="94" cy="69" r="6" fill="#fbbf24"/><circle cx="116" cy="69" r="6" fill="#4ade80"/><rect x="148" y="59" width="218" height="19" rx="9" fill="#cbd5e1"/><rect x="72" y="119" width="235" height="98" rx="16" fill="#eff6ff"/><rect x="96" y="142" width="112" height="11" rx="5" fill="#1e3a8a"/><rect x="96" y="169" width="180" height="8" rx="4" fill="#bfdbfe"/><rect x="331" y="119" width="317" height="98" rx="16" fill="#f1f5f9"/><circle cx="371" cy="168" r="18" fill="#dcfce7"/><path d="M362 168l7 7 12-16" fill="none" stroke="#16a34a" stroke-width="4"/><rect x="402" y="145" width="174" height="11" rx="5" fill="#334155"/><rect x="402" y="175" width="126" height="8" rx="4" fill="#94a3b8"/><g font-family="system-ui,sans-serif" font-weight="700" font-size="16" text-anchor="middle"><g><rect x="42" y="273" width="194" height="70" rx="18" fill="#fff"/><text x="139" y="314" fill="#0f172a">API</text></g><g><rect x="263" y="273" width="194" height="70" rx="18" fill="#fff"/><text x="360" y="314" fill="#0f172a">Automatyzacja</text></g><g><rect x="484" y="273" width="194" height="70" rx="18" fill="#fff"/><text x="581" y="314" fill="#0f172a">Linux / VPS</text></g></g></svg>
